<svg width="366" height="69" viewBox="0 0 366 69" fill="none" xmlns="http://www.w3.org/2000/svg">
<path d="M45.2497 0C58.7254 5.39525e-07 69.6497 14.6739 69.6497 32.775V69C63.9757 69 59.376 62.8216 59.376 55.2V32.775C59.376 22.2955 53.0514 13.8 45.2497 13.8H38.5702C35.1644 13.8001 31.8975 15.6171 29.4892 18.852L12.0809 42.2373C11.1176 43.5311 10.576 45.2859 10.5759 47.1158V48.3C10.5759 52.1107 12.8758 55.2 15.7128 55.2H38.8286C38.8286 62.5832 34.5121 68.6115 29.0842 68.9815L28.5549 69H15.7128C7.20178 69 0.302246 59.7323 0.302246 48.3V47.1158C0.302326 41.626 1.92583 36.3604 4.81579 32.4785L22.2253 9.09499C26.5604 3.27207 32.4395 7.54855e-05 38.5702 0H45.2497Z" fill="#FF500B"/>
<path d="M47.8181 20.7C51.3643 20.7 54.2391 24.5616 54.2391 29.325V69C48.5651 69 43.9655 62.8216 43.9655 55.2V34.5H39.6713L31.2784 45.7737C30.0742 47.3913 28.4409 48.3 26.7379 48.3H16.326C15.7882 48.3 15.5189 47.4266 15.8992 46.9159L33.5363 23.2268C34.7403 21.6094 36.3732 20.7 38.0761 20.7H47.8181Z" fill="#FF500B"/>
<path d="M352.925 51.8319V29.5996C352.925 28.959 352.497 28.3823 352.02 28.3823H351.4C351.018 28.3823 350.684 28.7026 350.541 29.1511L344.769 47.4751C343.959 50.1661 342.003 51.8319 339.856 51.8319C337.71 51.8319 335.802 50.1661 334.991 47.4751L329.173 29.1511C329.076 28.7026 328.742 28.3823 328.361 28.3823H327.741C327.264 28.3823 326.835 28.959 326.835 29.5996V51.8319H321.446V29.5996C321.446 24.9225 324.259 21.0783 327.741 21.0783H328.361C330.89 21.0783 333.178 23.1285 334.18 26.332L339.856 44.3998L345.532 26.332C346.534 23.1285 348.824 21.0783 351.4 21.0783H352.02C355.502 21.0783 358.315 24.9225 358.315 29.5996V51.8319H352.925Z" fill="#A62F00"/>
<path d="M296.845 51.8319C291.359 51.8319 286.923 45.8733 286.923 38.5053V21.0783H292.313V38.5053C292.313 41.8369 294.364 44.5919 296.845 44.5919H308.293C310.773 44.5919 312.823 41.8369 312.823 38.5053V21.0783H318.213V38.5053C318.213 45.8733 313.778 51.8319 308.293 51.8319H296.845Z" fill="#A62F00"/>
<path d="M276.994 44.5919C277.899 44.5919 278.663 43.5668 278.663 42.3494C278.663 41.1321 277.947 40.1711 277.089 40.1071H264.353C260.442 40.1071 257.294 35.8784 257.294 30.6246C257.294 25.371 260.442 21.0783 264.353 21.0783H284.101V28.3823H264.353C263.447 28.3823 262.684 29.4075 262.684 30.6246C262.684 31.8419 263.447 32.8671 264.353 32.8671H277.184C280.999 32.9953 284.101 37.1598 284.101 42.3494C284.101 47.6033 280.904 51.8319 276.994 51.8319H257.294V44.5919H276.994Z" fill="#A62F00"/>
<path d="M227.027 51.8319V29.5996C227.027 24.9225 229.842 21.0783 233.323 21.0783H247.203C251.687 21.0783 255.311 26.0116 255.311 32.0343C255.311 38.0568 251.687 42.9903 247.203 42.9903H232.416V51.8319H227.027ZM232.416 29.5996V35.6863H247.203C248.682 35.6863 249.922 34.0205 249.922 32.0343C249.922 30.0481 248.682 28.3823 247.203 28.3823H233.323C232.847 28.3823 232.416 28.959 232.416 29.5996Z" fill="#A62F00"/>
<path d="M217.949 21.0783H223.338V51.8319H217.949V21.0783Z" fill="#A62F00"/>
<path d="M203.669 44.5919C207.008 44.5919 209.727 40.9399 209.727 36.4551C209.727 32.0343 207.008 28.3823 203.669 28.3823H195.274C191.936 28.3823 189.217 32.0343 189.217 36.4551C189.217 40.9399 191.936 44.5919 195.274 44.5919H203.669ZM203.669 21.0783C210.013 21.0783 215.117 27.9978 215.117 36.4551C215.117 44.9764 210.013 51.8319 203.669 51.8319H195.274C188.93 51.8319 183.827 44.9764 183.827 36.4551C183.827 27.9978 188.93 21.0783 195.274 21.0783H203.669Z" fill="#A62F00"/>
<path d="M162.855 51.8319C156.511 51.8319 151.407 44.9764 151.407 36.4551C151.407 27.9978 156.511 21.0783 162.855 21.0783H179.405V28.3823H162.855C159.516 28.3823 156.797 32.0343 156.797 36.4551C156.797 40.9399 159.516 44.5919 162.855 44.5919H175.017C175.924 44.5919 176.687 43.5668 176.687 42.3494C176.687 41.1321 175.924 40.1071 175.017 40.1071H161.948V32.8671H175.017C178.929 32.8671 182.124 37.0958 182.124 42.3494C182.124 47.6033 178.929 51.8319 175.017 51.8319H162.855Z" fill="#A62F00"/>
<path d="M138.177 44.5919C141.516 44.5919 144.235 40.9399 144.235 36.4551C144.235 32.0343 141.516 28.3823 138.177 28.3823H129.782C126.444 28.3823 123.725 32.0343 123.725 36.4551C123.725 40.9399 126.444 44.5919 129.782 44.5919H138.177ZM138.177 21.0783C144.521 21.0783 149.625 27.9978 149.625 36.4551C149.625 44.9764 144.521 51.8319 138.177 51.8319H129.782C123.439 51.8319 118.335 44.9764 118.335 36.4551C118.335 27.9978 123.439 21.0783 129.782 21.0783H138.177Z" fill="#A62F00"/>
<path d="M96.2629 43.3746C96.2629 44.0153 96.6921 44.5919 97.1691 44.5919H117.345V51.8318H97.1691C93.6871 51.8318 90.8729 48.0518 90.8729 43.3746V20.886H96.2629V43.3746Z" fill="#A62F00"/>
<path d="M364.879 20.886C364.879 22.9392 363.64 24.6037 362.111 24.6037C360.582 24.6037 359.344 22.9392 359.344 20.886C359.344 18.8329 360.582 17.1683 362.111 17.1683C363.64 17.1683 364.879 18.8329 364.879 20.886Z" fill="#A62F00"/>
</svg>
