<svg width="363" height="350" viewBox="0 0 363 350" fill="none" xmlns="http://www.w3.org/2000/svg">
<g clip-path="url(#clip0_144_126)">
<path d="M362.418 175.001C362.481 216.31 347.351 256.298 319.725 287.836C318.721 288.987 317.7 290.121 316.659 291.245C304.41 304.549 290.142 315.98 274.341 325.149C270.717 327.25 267.014 329.23 263.231 331.089C262.848 331.277 262.46 331.465 262.077 331.646C261.619 331.87 261.155 332.088 260.691 332.307C251.118 336.832 241.147 340.525 230.895 343.341C229.829 343.633 228.761 343.916 227.692 344.189C214.206 347.635 200.353 349.563 186.409 349.935C185.681 349.953 184.967 349.966 184.277 349.978C184.032 349.984 183.794 349.99 183.556 349.99C182.772 349.996 181.995 350.002 181.21 350.002C166.516 350.013 151.874 348.299 137.608 344.898C136.178 344.559 134.755 344.201 133.338 343.826C125.873 341.858 118.549 339.425 111.411 336.542C107.649 335.028 103.953 333.395 100.325 331.643C99.5033 331.243 98.6818 330.843 97.873 330.432C97.5282 330.268 97.1894 330.091 96.8511 329.923C77.5127 320.066 60.1706 306.925 45.6551 291.131C44.6519 290.047 43.6673 288.944 42.6953 287.837C26.7018 269.524 14.7716 248.235 7.6438 225.289C0.515959 202.342 -1.65779 178.226 1.25715 154.436C4.17208 130.645 12.1137 107.685 24.59 86.9784C37.0664 66.272 53.8118 48.2597 73.7893 34.0571C74.8176 33.3245 75.853 32.5988 76.8995 31.889L77.5202 31.4715C95.919 19.0252 116.57 10.0188 138.404 4.91854C139.645 4.62201 140.887 4.34347 142.141 4.08292C165.79 -0.912361 190.231 -1.32543 214.048 2.86764C215.295 3.09173 216.543 3.32166 217.784 3.57006C239.423 7.85637 260.061 15.9498 278.668 27.4465C279.082 27.7007 279.496 27.9549 279.909 28.2213C280.744 28.7419 281.577 29.2747 282.399 29.8138C307.047 45.8168 327.239 67.4313 341.194 92.751C355.149 118.071 362.438 146.318 362.418 175.001Z" fill="#F2F2F2"/>
<path d="M135.437 265.534L77.5191 270.499L76.8985 270.554V31.8875L77.5191 31.4699C89.5898 23.3163 102.647 16.6179 116.401 11.5238L119.362 50.9436L119.632 54.5525L122.56 93.6461L123.463 105.672L135.33 264.141L135.437 265.534Z" fill="#D6D6E3"/>
<path d="M278.667 27.4425C279.081 27.6967 279.495 27.951 279.908 28.2174V270.554L278.667 270.445L221.376 265.535L221.483 264.142L233.353 105.674L234.256 93.6476L237.184 54.554L237.454 50.9426L240.557 9.60266C253.942 14.0836 266.734 20.0717 278.668 27.443L278.667 27.4425Z" fill="#D6D6E3"/>
<path d="M278.665 27.443V273.86C278.665 278.589 275.293 282.434 271.141 282.434H85.0434C81.6075 282.434 78.6915 279.794 77.8076 276.191C77.6144 275.427 77.5176 274.644 77.5192 273.858V31.468L76.8985 31.8856C75.8515 32.5938 74.8166 33.3206 73.7883 34.0536V273.86C73.7329 277.452 75.1223 280.925 77.6641 283.548C78.9971 284.896 80.6826 285.87 82.5422 286.368C83.3576 286.582 84.1989 286.69 85.0439 286.689H271.143C271.99 286.69 272.834 286.582 273.651 286.368C278.655 285.066 282.398 279.955 282.398 273.857V29.8108C281.577 29.2717 280.743 28.7414 279.909 28.2183C279.495 27.9515 279.081 27.6972 278.665 27.443Z" fill="#D6D6E3"/>
<path d="M280.534 50.946H75.6542V54.5545H280.534V50.946Z" fill="#D6D6E3"/>
<path d="M138.403 4.91701C139.644 4.62049 140.886 4.34195 142.14 4.08139V102.062H138.403V4.91701Z" fill="#D6D6E3"/>
<path d="M214.047 2.86417C215.294 3.08826 216.542 3.3182 217.783 3.5666V102.065H214.047V2.86417Z" fill="#D6D6E3"/>
<path d="M303.886 264.141H58.5269C54.0668 264.141 49.7894 265.852 46.6357 268.898C43.482 271.943 41.7102 276.074 41.7102 280.381C41.7102 284.689 43.482 288.819 46.6357 291.865C49.7894 294.911 54.0668 296.622 58.5269 296.622H303.886C306.275 296.622 308.636 296.13 310.812 295.179C312.988 294.227 314.929 292.837 316.504 291.103C317.216 290.32 317.849 289.474 318.395 288.575C318.818 287.885 319.185 287.165 319.493 286.42C320.517 283.956 320.9 281.288 320.607 278.648C320.315 276.008 319.357 273.478 317.817 271.279C316.277 269.08 314.201 267.279 311.773 266.035C309.345 264.791 306.637 264.141 303.888 264.142L303.886 264.141Z" fill="#D6D6E3"/>
<path d="M280.534 93.6457H76.8995V105.674H280.534V93.6457Z" fill="#D6D6E3"/>
<path d="M176.848 90.0372H180.585C181.484 90.0372 182.375 90.2084 183.206 90.5408C184.038 90.8733 184.793 91.3607 185.429 91.975C186.065 92.5894 186.569 93.3187 186.914 94.1214C187.258 94.9241 187.435 95.7844 187.435 96.6532H169.998C169.998 94.8987 170.72 93.216 172.005 91.9754C173.289 90.7347 175.032 90.0372 176.848 90.0372Z" fill="#D6D6E3"/>
<path d="M319.724 287.835C314.277 294.068 308.385 299.926 302.092 305.365H60.3265C54.0335 299.926 48.1419 294.068 42.6948 287.835H319.724Z" fill="#3F3D56"/>
<path d="M201.45 227.119H160.743C160.524 227.116 160.306 227.149 160.098 227.216C159.656 227.348 159.27 227.613 158.995 227.973C158.721 228.333 158.574 228.768 158.574 229.214V291.317H203.625V229.214C203.624 228.938 203.568 228.665 203.458 228.411C203.349 228.156 203.188 227.925 202.986 227.731C202.784 227.536 202.545 227.382 202.281 227.277C202.017 227.172 201.735 227.118 201.45 227.119ZM186.044 257.758C186.045 258.766 185.701 259.745 185.066 260.544C184.459 261.319 183.616 261.89 182.655 262.178C181.694 262.466 180.664 262.455 179.71 262.148C178.756 261.84 177.925 261.251 177.336 260.463C176.747 259.676 176.428 258.73 176.426 257.758V250.553C176.426 249.321 176.932 248.139 177.834 247.268C178.736 246.397 179.959 245.908 181.235 245.908C182.51 245.908 183.734 246.397 184.636 247.268C185.538 248.139 186.044 249.321 186.044 250.553L186.044 257.758Z" fill="#2F2E41"/>
<path d="M158.436 289.331V295.32C158.436 295.63 158.563 295.928 158.789 296.148C159.016 296.368 159.323 296.493 159.644 296.495H202.551C202.872 296.492 203.178 296.367 203.405 296.147C203.631 295.927 203.758 295.63 203.759 295.32V289.331H158.436Z" fill="#3F3D56"/>
<path d="M268.854 130.202H94.8563C93.3612 130.204 91.9277 130.778 90.87 131.799C89.8123 132.819 89.2165 134.203 89.2131 135.647V249.039C89.2143 250.484 89.8093 251.869 90.8673 252.891C91.9253 253.913 93.36 254.487 94.8563 254.489H268.854C270.35 254.487 271.785 253.913 272.843 252.891C273.901 251.869 274.496 250.484 274.497 249.039V135.646C274.494 134.202 273.898 132.819 272.84 131.798C271.783 130.778 270.349 130.204 268.854 130.202Z" fill="#3F3D56"/>
<path d="M267.399 134.138H96.3049C95.5046 134.139 94.7375 134.447 94.172 134.994C93.6065 135.541 93.2888 136.282 93.2888 137.055V247.64C93.29 248.412 93.6082 249.152 94.1736 249.698C94.739 250.244 95.5054 250.551 96.3049 250.553H267.399C268.199 250.551 268.966 250.244 269.531 249.698C270.096 249.152 270.414 248.412 270.416 247.64V137.057C270.416 136.284 270.098 135.543 269.533 134.996C268.967 134.449 268.2 134.141 267.4 134.14L267.399 134.138Z" fill="#6C63FF"/>
<path d="M235.91 296.396L234.33 289.148C234.265 288.853 234.124 288.578 233.92 288.349C233.716 288.119 233.456 287.943 233.164 287.835C232.952 287.755 232.727 287.714 232.5 287.714H133.863C133.636 287.714 133.41 287.755 133.199 287.835C132.906 287.943 132.647 288.119 132.443 288.349C132.239 288.578 132.098 288.853 132.032 289.148L130.452 296.396C130.395 296.659 130.4 296.932 130.465 297.193C130.531 297.454 130.656 297.698 130.831 297.907C131.006 298.115 131.228 298.284 131.479 298.4C131.73 298.515 132.005 298.576 132.283 298.576H234.073C234.352 298.577 234.628 298.518 234.88 298.401C235.132 298.285 235.354 298.115 235.528 297.904C235.704 297.696 235.829 297.453 235.895 297.192C235.961 296.931 235.967 296.659 235.91 296.396Z" fill="#2F2E41"/>
<path d="M137.476 289.02H134.832C134.696 289.02 134.586 289.126 134.586 289.257V290.6C134.586 290.731 134.696 290.837 134.832 290.837H137.476C137.611 290.837 137.721 290.731 137.721 290.6V289.257C137.721 289.126 137.611 289.02 137.476 289.02Z" fill="#3F3D56"/>
<path d="M143.745 289.02H141.102C140.966 289.02 140.856 289.126 140.856 289.257V290.6C140.856 290.731 140.966 290.837 141.102 290.837H143.745C143.881 290.837 143.991 290.731 143.991 290.6V289.257C143.991 289.126 143.881 289.02 143.745 289.02Z" fill="#3F3D56"/>
<path d="M150.016 289.02H147.372C147.237 289.02 147.127 289.126 147.127 289.257V290.6C147.127 290.731 147.237 290.837 147.372 290.837H150.016C150.152 290.837 150.262 290.731 150.262 290.6V289.257C150.262 289.126 150.152 289.02 150.016 289.02Z" fill="#3F3D56"/>
<path d="M156.286 289.02H153.642C153.507 289.02 153.397 289.126 153.397 289.257V290.6C153.397 290.731 153.507 290.837 153.642 290.837H156.286C156.422 290.837 156.532 290.731 156.532 290.6V289.257C156.532 289.126 156.422 289.02 156.286 289.02Z" fill="#3F3D56"/>
<path d="M162.556 289.02H159.912C159.777 289.02 159.667 289.126 159.667 289.257V290.6C159.667 290.731 159.777 290.837 159.912 290.837H162.556C162.692 290.837 162.802 290.731 162.802 290.6V289.257C162.802 289.126 162.692 289.02 162.556 289.02Z" fill="#3F3D56"/>
<path d="M168.826 289.02H166.183C166.047 289.02 165.937 289.126 165.937 289.257V290.6C165.937 290.731 166.047 290.837 166.183 290.837H168.826C168.962 290.837 169.072 290.731 169.072 290.6V289.257C169.072 289.126 168.962 289.02 168.826 289.02Z" fill="#3F3D56"/>
<path d="M175.097 289.02H172.453C172.317 289.02 172.207 289.126 172.207 289.257V290.6C172.207 290.731 172.317 290.837 172.453 290.837H175.097C175.232 290.837 175.342 290.731 175.342 290.6V289.257C175.342 289.126 175.232 289.02 175.097 289.02Z" fill="#3F3D56"/>
<path d="M181.367 289.02H178.723C178.588 289.02 178.478 289.126 178.478 289.257V290.6C178.478 290.731 178.588 290.837 178.723 290.837H181.367C181.503 290.837 181.613 290.731 181.613 290.6V289.257C181.613 289.126 181.503 289.02 181.367 289.02Z" fill="#3F3D56"/>
<path d="M187.637 289.02H184.993C184.858 289.02 184.748 289.126 184.748 289.257V290.6C184.748 290.731 184.858 290.837 184.993 290.837H187.637C187.772 290.837 187.882 290.731 187.882 290.6V289.257C187.882 289.126 187.772 289.02 187.637 289.02Z" fill="#3F3D56"/>
<path d="M193.907 289.02H191.264C191.128 289.02 191.018 289.126 191.018 289.257V290.6C191.018 290.731 191.128 290.837 191.264 290.837H193.907C194.043 290.837 194.153 290.731 194.153 290.6V289.257C194.153 289.126 194.043 289.02 193.907 289.02Z" fill="#3F3D56"/>
<path d="M200.177 289.02H197.534C197.398 289.02 197.288 289.126 197.288 289.257V290.6C197.288 290.731 197.398 290.837 197.534 290.837H200.177C200.313 290.837 200.423 290.731 200.423 290.6V289.257C200.423 289.126 200.313 289.02 200.177 289.02Z" fill="#3F3D56"/>
<path d="M206.447 289.02H203.804C203.668 289.02 203.558 289.126 203.558 289.257V290.6C203.558 290.731 203.668 290.837 203.804 290.837H206.447C206.583 290.837 206.693 290.731 206.693 290.6V289.257C206.693 289.126 206.583 289.02 206.447 289.02Z" fill="#3F3D56"/>
<path d="M212.718 289.02H210.074C209.938 289.02 209.828 289.126 209.828 289.257V290.6C209.828 290.731 209.938 290.837 210.074 290.837H212.718C212.853 290.837 212.963 290.731 212.963 290.6V289.257C212.963 289.126 212.853 289.02 212.718 289.02Z" fill="#3F3D56"/>
<path d="M218.988 289.02H216.344C216.209 289.02 216.099 289.126 216.099 289.257V290.6C216.099 290.731 216.209 290.837 216.344 290.837H218.988C219.124 290.837 219.234 290.731 219.234 290.6V289.257C219.234 289.126 219.124 289.02 218.988 289.02Z" fill="#3F3D56"/>
<path d="M225.258 289.02H222.615C222.479 289.02 222.369 289.126 222.369 289.257V290.6C222.369 290.731 222.479 290.837 222.615 290.837H225.258C225.394 290.837 225.504 290.731 225.504 290.6V289.257C225.504 289.126 225.394 289.02 225.258 289.02Z" fill="#3F3D56"/>
<path d="M231.528 289.02H228.885C228.749 289.02 228.639 289.126 228.639 289.257V290.6C228.639 290.731 228.749 290.837 228.885 290.837H231.528C231.664 290.837 231.774 290.731 231.774 290.6V289.257C231.774 289.126 231.664 289.02 231.528 289.02Z" fill="#3F3D56"/>
<path d="M137.401 292.048H134.758C134.622 292.048 134.512 292.154 134.512 292.285V293.627C134.512 293.758 134.622 293.864 134.758 293.864H137.401C137.537 293.864 137.647 293.758 137.647 293.627V292.285C137.647 292.154 137.537 292.048 137.401 292.048Z" fill="#3F3D56"/>
<path d="M143.672 292.048H141.028C140.892 292.048 140.782 292.154 140.782 292.285V293.627C140.782 293.758 140.892 293.864 141.028 293.864H143.672C143.807 293.864 143.917 293.758 143.917 293.627V292.285C143.917 292.154 143.807 292.048 143.672 292.048Z" fill="#3F3D56"/>
<path d="M149.942 292.048H147.298C147.163 292.048 147.053 292.154 147.053 292.285V293.627C147.053 293.758 147.163 293.864 147.298 293.864H149.942C150.078 293.864 150.188 293.758 150.188 293.627V292.285C150.188 292.154 150.078 292.048 149.942 292.048Z" fill="#3F3D56"/>
<path d="M156.212 292.048H153.569C153.433 292.048 153.323 292.154 153.323 292.285V293.627C153.323 293.758 153.433 293.864 153.569 293.864H156.212C156.348 293.864 156.458 293.758 156.458 293.627V292.285C156.458 292.154 156.348 292.048 156.212 292.048Z" fill="#3F3D56"/>
<path d="M162.482 292.048H159.838C159.703 292.048 159.593 292.154 159.593 292.285V293.627C159.593 293.758 159.703 293.864 159.838 293.864H162.482C162.618 293.864 162.728 293.758 162.728 293.627V292.285C162.728 292.154 162.618 292.048 162.482 292.048Z" fill="#3F3D56"/>
<path d="M168.752 292.048H166.109C165.973 292.048 165.863 292.154 165.863 292.285V293.627C165.863 293.758 165.973 293.864 166.109 293.864H168.752C168.888 293.864 168.998 293.758 168.998 293.627V292.285C168.998 292.154 168.888 292.048 168.752 292.048Z" fill="#3F3D56"/>
<path d="M175.023 292.048H172.379C172.243 292.048 172.133 292.154 172.133 292.285V293.627C172.133 293.758 172.243 293.864 172.379 293.864H175.023C175.158 293.864 175.268 293.758 175.268 293.627V292.285C175.268 292.154 175.158 292.048 175.023 292.048Z" fill="#3F3D56"/>
<path d="M181.293 292.048H178.649C178.513 292.048 178.403 292.154 178.403 292.285V293.627C178.403 293.758 178.513 293.864 178.649 293.864H181.293C181.428 293.864 181.538 293.758 181.538 293.627V292.285C181.538 292.154 181.428 292.048 181.293 292.048Z" fill="#3F3D56"/>
<path d="M187.563 292.048H184.919C184.783 292.048 184.674 292.154 184.674 292.285V293.627C184.674 293.758 184.783 293.864 184.919 293.864H187.563C187.698 293.864 187.808 293.758 187.808 293.627V292.285C187.808 292.154 187.698 292.048 187.563 292.048Z" fill="#3F3D56"/>
<path d="M193.833 292.048H191.19C191.054 292.048 190.944 292.154 190.944 292.285V293.627C190.944 293.758 191.054 293.864 191.19 293.864H193.833C193.969 293.864 194.079 293.758 194.079 293.627V292.285C194.079 292.154 193.969 292.048 193.833 292.048Z" fill="#3F3D56"/>
<path d="M200.103 292.048H197.459C197.324 292.048 197.214 292.154 197.214 292.285V293.627C197.214 293.758 197.324 293.864 197.459 293.864H200.103C200.239 293.864 200.349 293.758 200.349 293.627V292.285C200.349 292.154 200.239 292.048 200.103 292.048Z" fill="#3F3D56"/>
<path d="M206.373 292.048H203.73C203.594 292.048 203.484 292.154 203.484 292.285V293.627C203.484 293.758 203.594 293.864 203.73 293.864H206.373C206.509 293.864 206.619 293.758 206.619 293.627V292.285C206.619 292.154 206.509 292.048 206.373 292.048Z" fill="#3F3D56"/>
<path d="M212.644 292.048H210C209.864 292.048 209.754 292.154 209.754 292.285V293.627C209.754 293.758 209.864 293.864 210 293.864H212.644C212.779 293.864 212.889 293.758 212.889 293.627V292.285C212.889 292.154 212.779 292.048 212.644 292.048Z" fill="#3F3D56"/>
<path d="M218.914 292.048H216.27C216.135 292.048 216.025 292.154 216.025 292.285V293.627C216.025 293.758 216.135 293.864 216.27 293.864H218.914C219.05 293.864 219.16 293.758 219.16 293.627V292.285C219.16 292.154 219.05 292.048 218.914 292.048Z" fill="#3F3D56"/>
<path d="M225.184 292.048H222.54C222.405 292.048 222.295 292.154 222.295 292.285V293.627C222.295 293.758 222.405 293.864 222.54 293.864H225.184C225.319 293.864 225.429 293.758 225.429 293.627V292.285C225.429 292.154 225.319 292.048 225.184 292.048Z" fill="#3F3D56"/>
<path d="M231.454 292.048H228.811C228.675 292.048 228.565 292.154 228.565 292.285V293.627C228.565 293.758 228.675 293.864 228.811 293.864H231.454C231.59 293.864 231.7 293.758 231.7 293.627V292.285C231.7 292.154 231.59 292.048 231.454 292.048Z" fill="#3F3D56"/>
<path d="M189.444 295.681H164.855C164.719 295.681 164.609 295.787 164.609 295.918V297.26C164.609 297.391 164.719 297.497 164.855 297.497H189.444C189.58 297.497 189.69 297.391 189.69 297.26V295.918C189.69 295.787 189.58 295.681 189.444 295.681Z" fill="#3F3D56"/>
<path d="M258.802 149.372H98.709C98.5401 149.372 98.3782 149.307 98.2588 149.192C98.1394 149.076 98.0723 148.92 98.0723 148.757C98.0723 148.594 98.1394 148.437 98.2588 148.322C98.3782 148.207 98.5401 148.142 98.709 148.142H258.802C258.971 148.142 259.132 148.207 259.252 148.322C259.371 148.437 259.438 148.594 259.438 148.757C259.438 148.92 259.371 149.076 259.252 149.192C259.132 149.307 258.971 149.372 258.802 149.372Z" fill="#3F3D56"/>
<path d="M109.607 145.002C111.667 145.002 113.338 143.353 113.338 141.319C113.338 139.285 111.667 137.636 109.607 137.636C107.546 137.636 105.876 139.285 105.876 141.319C105.876 143.353 107.546 145.002 109.607 145.002Z" fill="#3F3D56"/>
<path d="M122.496 145.002C124.556 145.002 126.227 143.353 126.227 141.319C126.227 139.285 124.556 137.636 122.496 137.636C120.435 137.636 118.765 139.285 118.765 141.319C118.765 143.353 120.435 145.002 122.496 145.002Z" fill="#3F3D56"/>
<path d="M135.385 145.002C137.445 145.002 139.116 143.353 139.116 141.319C139.116 139.285 137.445 137.636 135.385 137.636C133.324 137.636 131.654 139.285 131.654 141.319C131.654 143.353 133.324 145.002 135.385 145.002Z" fill="#3F3D56"/>
<path d="M251.04 138.547H241.886C241.705 138.552 241.534 138.624 241.408 138.749C241.282 138.874 241.211 139.042 241.211 139.216C241.211 139.39 241.282 139.558 241.408 139.683C241.534 139.808 241.705 139.881 241.886 139.885H251.04C251.133 139.888 251.225 139.872 251.311 139.84C251.397 139.807 251.476 139.758 251.542 139.696C251.609 139.633 251.662 139.559 251.698 139.476C251.734 139.394 251.752 139.306 251.752 139.216C251.752 139.127 251.734 139.038 251.698 138.956C251.662 138.873 251.609 138.799 251.542 138.736C251.476 138.674 251.397 138.625 251.311 138.593C251.225 138.56 251.133 138.545 251.04 138.547Z" fill="#3F3D56"/>
<path d="M251.04 141.06H241.886C241.705 141.064 241.534 141.137 241.408 141.262C241.282 141.387 241.211 141.554 241.211 141.729C241.211 141.903 241.282 142.071 241.408 142.196C241.534 142.321 241.705 142.393 241.886 142.398H251.04C251.224 142.398 251.4 142.327 251.53 142.202C251.66 142.076 251.733 141.906 251.733 141.729C251.733 141.551 251.66 141.381 251.53 141.256C251.4 141.13 251.224 141.06 251.04 141.06Z" fill="#3F3D56"/>
<path d="M251.04 143.573H241.886C241.705 143.578 241.534 143.65 241.408 143.775C241.282 143.9 241.211 144.068 241.211 144.242C241.211 144.416 241.282 144.584 241.408 144.709C241.534 144.834 241.705 144.906 241.886 144.911H251.04C251.133 144.913 251.225 144.898 251.311 144.865C251.397 144.833 251.476 144.784 251.542 144.722C251.609 144.659 251.662 144.585 251.698 144.502C251.734 144.42 251.752 144.331 251.752 144.242C251.752 144.153 251.734 144.064 251.698 143.982C251.662 143.899 251.609 143.825 251.542 143.762C251.476 143.7 251.397 143.651 251.311 143.618C251.225 143.586 251.133 143.57 251.04 143.573Z" fill="#3F3D56"/>
<path d="M112.869 163.66H108.868C108.067 163.66 107.418 164.287 107.418 165.06V165.748C107.418 166.521 108.067 167.148 108.868 167.148H112.869C113.67 167.148 114.319 166.521 114.319 165.748V165.06C114.319 164.287 113.67 163.66 112.869 163.66Z" fill="#E6E6E6"/>
<path d="M150.491 163.66H146.489C145.688 163.66 145.039 164.287 145.039 165.06V165.748C145.039 166.521 145.688 167.148 146.489 167.148H150.491C151.291 167.148 151.94 166.521 151.94 165.748V165.06C151.94 164.287 151.291 163.66 150.491 163.66Z" fill="#E6E6E6"/>
<path d="M161.15 163.66H157.148C156.347 163.66 155.698 164.287 155.698 165.06V165.748C155.698 166.521 156.347 167.148 157.148 167.148H161.15C161.95 167.148 162.599 166.521 162.599 165.748V165.06C162.599 164.287 161.95 163.66 161.15 163.66Z" fill="#E6E6E6"/>
<path d="M140.258 163.369H119.101C118.3 163.369 117.651 163.996 117.651 164.769V165.457C117.651 166.23 118.3 166.857 119.101 166.857H140.258C141.058 166.857 141.707 166.23 141.707 165.457V164.769C141.707 163.996 141.058 163.369 140.258 163.369Z" fill="#E6E6E6"/>
<path d="M190.419 163.369H169.262C168.462 163.369 167.813 163.996 167.813 164.769V165.457C167.813 166.23 168.462 166.857 169.262 166.857H190.419C191.22 166.857 191.869 166.23 191.869 165.457V164.769C191.869 163.996 191.22 163.369 190.419 163.369Z" fill="#E6E6E6"/>
<path d="M122.901 171.533H118.9C118.099 171.533 117.45 172.159 117.45 172.933V173.62C117.45 174.394 118.099 175.02 118.9 175.02H122.901C123.702 175.02 124.351 174.394 124.351 173.62V172.933C124.351 172.159 123.702 171.533 122.901 171.533Z" fill="#E6E6E6"/>
<path d="M160.523 171.533H156.521C155.721 171.533 155.072 172.159 155.072 172.933V173.62C155.072 174.394 155.721 175.02 156.521 175.02H160.523C161.324 175.02 161.973 174.394 161.973 173.62V172.933C161.973 172.159 161.324 171.533 160.523 171.533Z" fill="#E6E6E6"/>
<path d="M171.182 171.533H167.18C166.38 171.533 165.731 172.159 165.731 172.933V173.62C165.731 174.394 166.38 175.02 167.18 175.02H171.182C171.983 175.02 172.632 174.394 172.632 173.62V172.933C172.632 172.159 171.983 171.533 171.182 171.533Z" fill="#E6E6E6"/>
<path d="M150.29 171.241H129.133C128.332 171.241 127.683 171.868 127.683 172.641V173.329C127.683 174.102 128.332 174.729 129.133 174.729H150.29C151.09 174.729 151.739 174.102 151.739 173.329V172.641C151.739 171.868 151.09 171.241 150.29 171.241Z" fill="#E6E6E6"/>
<path d="M200.451 171.241H179.295C178.494 171.241 177.845 171.868 177.845 172.641V173.329C177.845 174.102 178.494 174.729 179.295 174.729H200.451C201.252 174.729 201.901 174.102 201.901 173.329V172.641C201.901 171.868 201.252 171.241 200.451 171.241Z" fill="#E6E6E6"/>
<path d="M132.934 179.404H128.932C128.132 179.404 127.482 180.031 127.482 180.804V181.492C127.482 182.265 128.132 182.892 128.932 182.892H132.934C133.734 182.892 134.384 182.265 134.384 181.492V180.804C134.384 180.031 133.734 179.404 132.934 179.404Z" fill="#E6E6E6"/>
<path d="M170.555 179.404H166.553C165.753 179.404 165.104 180.031 165.104 180.804V181.492C165.104 182.265 165.753 182.892 166.553 182.892H170.555C171.356 182.892 172.005 182.265 172.005 181.492V180.804C172.005 180.031 171.356 179.404 170.555 179.404Z" fill="#E6E6E6"/>
<path d="M181.214 179.404H177.213C176.412 179.404 175.763 180.031 175.763 180.804V181.492C175.763 182.265 176.412 182.892 177.213 182.892H181.214C182.015 182.892 182.664 182.265 182.664 181.492V180.804C182.664 180.031 182.015 179.404 181.214 179.404Z" fill="#E6E6E6"/>
<path d="M160.322 179.113H139.165C138.365 179.113 137.716 179.74 137.716 180.513V181.201C137.716 181.975 138.365 182.601 139.165 182.601H160.322C161.123 182.601 161.772 181.975 161.772 181.201V180.513C161.772 179.74 161.123 179.113 160.322 179.113Z" fill="#E6E6E6"/>
<path d="M210.484 179.113H189.327C188.526 179.113 187.877 179.74 187.877 180.513V181.201C187.877 181.975 188.526 182.601 189.327 182.601H210.484C211.284 182.601 211.933 181.975 211.933 181.201V180.513C211.933 179.74 211.284 179.113 210.484 179.113Z" fill="#E6E6E6"/>
<path d="M142.966 187.276H138.965C138.164 187.276 137.515 187.903 137.515 188.676V189.364C137.515 190.137 138.164 190.764 138.965 190.764H142.966C143.767 190.764 144.416 190.137 144.416 189.364V188.676C144.416 187.903 143.767 187.276 142.966 187.276Z" fill="#E6E6E6"/>
<path d="M180.587 187.276H176.586C175.785 187.276 175.136 187.903 175.136 188.676V189.364C175.136 190.137 175.785 190.764 176.586 190.764H180.587C181.388 190.764 182.037 190.137 182.037 189.364V188.676C182.037 187.903 181.388 187.276 180.587 187.276Z" fill="#E6E6E6"/>
<path d="M191.247 187.276H187.245C186.445 187.276 185.796 187.903 185.796 188.676V189.364C185.796 190.137 186.445 190.764 187.245 190.764H191.247C192.048 190.764 192.697 190.137 192.697 189.364V188.676C192.697 187.903 192.048 187.276 191.247 187.276Z" fill="#E6E6E6"/>
<path d="M170.354 186.986H149.198C148.397 186.986 147.748 187.612 147.748 188.386V189.073C147.748 189.847 148.397 190.473 149.198 190.473H170.354C171.155 190.473 171.804 189.847 171.804 189.073V188.386C171.804 187.612 171.155 186.986 170.354 186.986Z" fill="#E6E6E6"/>
<path d="M150.491 218.578H146.489C145.688 218.578 145.039 219.205 145.039 219.978V220.666C145.039 221.44 145.688 222.066 146.489 222.066H150.491C151.291 222.066 151.94 221.44 151.94 220.666V219.978C151.94 219.205 151.291 218.578 150.491 218.578Z" fill="#E6E6E6"/>
<path d="M161.15 218.578H157.148C156.347 218.578 155.698 219.205 155.698 219.978V220.666C155.698 221.44 156.347 222.066 157.148 222.066H161.15C161.95 222.066 162.599 221.44 162.599 220.666V219.978C162.599 219.205 161.95 218.578 161.15 218.578Z" fill="#E6E6E6"/>
<path d="M190.419 218.869H169.262C168.462 218.869 167.813 219.496 167.813 220.269V220.957C167.813 221.73 168.462 222.357 169.262 222.357H190.419C191.22 222.357 191.869 221.73 191.869 220.957V220.269C191.869 219.496 191.22 218.869 190.419 218.869Z" fill="#E6E6E6"/>
<path d="M112.869 218.578H108.868C108.067 218.578 107.418 219.205 107.418 219.978V220.666C107.418 221.44 108.067 222.066 108.868 222.066H112.869C113.67 222.066 114.319 221.44 114.319 220.666V219.978C114.319 219.205 113.67 218.578 112.869 218.578Z" fill="#E6E6E6"/>
<path d="M140.258 218.869H119.101C118.3 218.869 117.651 219.496 117.651 220.269V220.957C117.651 221.73 118.3 222.357 119.101 222.357H140.258C141.058 222.357 141.707 221.73 141.707 220.957V220.269C141.707 219.496 141.058 218.869 140.258 218.869Z" fill="#E6E6E6"/>
<path d="M122.901 210.706H118.9C118.099 210.706 117.45 211.333 117.45 212.106V212.794C117.45 213.567 118.099 214.194 118.9 214.194H122.901C123.702 214.194 124.351 213.567 124.351 212.794V212.106C124.351 211.333 123.702 210.706 122.901 210.706Z" fill="#E6E6E6"/>
<path d="M160.523 210.706H156.521C155.721 210.706 155.072 211.333 155.072 212.106V212.794C155.072 213.567 155.721 214.194 156.521 214.194H160.523C161.324 214.194 161.973 213.567 161.973 212.794V212.106C161.973 211.333 161.324 210.706 160.523 210.706Z" fill="#E6E6E6"/>
<path d="M171.182 210.706H167.18C166.38 210.706 165.731 211.333 165.731 212.106V212.794C165.731 213.567 166.38 214.194 167.18 214.194H171.182C171.983 214.194 172.632 213.567 172.632 212.794V212.106C172.632 211.333 171.983 210.706 171.182 210.706Z" fill="#E6E6E6"/>
<path d="M150.29 210.997H129.133C128.332 210.997 127.683 211.624 127.683 212.397V213.085C127.683 213.858 128.332 214.485 129.133 214.485H150.29C151.09 214.485 151.739 213.858 151.739 213.085V212.397C151.739 211.624 151.09 210.997 150.29 210.997Z" fill="#E6E6E6"/>
<path d="M132.934 202.834H128.932C128.132 202.834 127.482 203.461 127.482 204.234V204.922C127.482 205.695 128.132 206.322 128.932 206.322H132.934C133.734 206.322 134.384 205.695 134.384 204.922V204.234C134.384 203.461 133.734 202.834 132.934 202.834Z" fill="#E6E6E6"/>
<path d="M170.555 202.834H166.553C165.753 202.834 165.104 203.461 165.104 204.234V204.922C165.104 205.695 165.753 206.322 166.553 206.322H170.555C171.356 206.322 172.005 205.695 172.005 204.922V204.234C172.005 203.461 171.356 202.834 170.555 202.834Z" fill="#E6E6E6"/>
<path d="M181.214 202.834H177.213C176.412 202.834 175.763 203.461 175.763 204.234V204.922C175.763 205.695 176.412 206.322 177.213 206.322H181.214C182.015 206.322 182.664 205.695 182.664 204.922V204.234C182.664 203.461 182.015 202.834 181.214 202.834Z" fill="#E6E6E6"/>
<path d="M160.322 203.125H139.165C138.365 203.125 137.716 203.752 137.716 204.525V205.213C137.716 205.986 138.365 206.613 139.165 206.613H160.322C161.123 206.613 161.772 205.986 161.772 205.213V204.525C161.772 203.752 161.123 203.125 160.322 203.125Z" fill="#E6E6E6"/>
<path d="M142.966 194.963H138.965C138.164 194.963 137.515 195.589 137.515 196.363V197.05C137.515 197.824 138.164 198.451 138.965 198.451H142.966C143.767 198.451 144.416 197.824 144.416 197.05V196.363C144.416 195.589 143.767 194.963 142.966 194.963Z" fill="#E6E6E6"/>
<path d="M180.587 194.963H176.586C175.785 194.963 175.136 195.589 175.136 196.363V197.05C175.136 197.824 175.785 198.451 176.586 198.451H180.587C181.388 198.451 182.037 197.824 182.037 197.05V196.363C182.037 195.589 181.388 194.963 180.587 194.963Z" fill="#E6E6E6"/>
<path d="M191.247 194.963H187.245C186.445 194.963 185.796 195.589 185.796 196.363V197.05C185.796 197.824 186.445 198.451 187.245 198.451H191.247C192.048 198.451 192.697 197.824 192.697 197.05V196.363C192.697 195.589 192.048 194.963 191.247 194.963Z" fill="#E6E6E6"/>
<path d="M170.354 195.253H149.198C148.397 195.253 147.748 195.88 147.748 196.653V197.341C147.748 198.114 148.397 198.741 149.198 198.741H170.354C171.155 198.741 171.804 198.114 171.804 197.341V196.653C171.804 195.88 171.155 195.253 170.354 195.253Z" fill="#E6E6E6"/>
<path d="M167.431 202.684C167.431 202.684 177.806 216.75 174.101 220.558C170.395 224.367 201.901 224.462 201.901 224.462C201.901 224.462 197.169 203.999 198.561 199.291L167.431 202.684Z" fill="#FFB9B9"/>
<path d="M260.721 332.3C260.339 332.488 259.95 332.675 259.568 332.857C249.661 337.641 241.735 340.36 230.894 343.339C229.979 333.471 229.095 316.12 228.236 305.366C228.01 302.575 227.783 300.231 227.565 298.578C227.509 297.699 227.322 296.832 227.011 296.005L227.049 298.578L227.143 305.366L227.689 344.187C214.203 347.633 200.35 349.561 186.406 349.933C185.678 349.951 184.964 349.964 184.274 349.976C184.029 349.982 183.791 349.988 183.553 349.988C182.769 349.994 181.992 350 181.207 350C166.513 350.011 151.871 348.297 137.605 344.896C137.912 335.128 138.219 317.973 138.514 305.366C138.577 302.902 138.633 300.607 138.695 298.578C138.815 294.242 138.94 291.118 139.059 290.071C138.954 290.257 138.871 290.454 138.815 290.658C138.234 293.269 137.838 295.916 137.63 298.579C137.41 300.607 137.191 302.902 136.971 305.367C135.805 318.464 134.589 336.273 133.335 343.824C125.87 341.857 118.546 339.423 111.408 336.54C107.647 335.026 103.952 333.392 100.324 331.64C101.013 327.281 101.733 322.394 102.475 317.325C103.051 313.396 103.647 309.357 104.256 305.367C105.196 299.203 106.162 293.159 107.14 287.837C108.569 280.062 110.037 273.813 111.491 270.943C112.871 268.217 114.25 265.529 115.586 262.956C116.05 262.053 116.514 261.163 116.965 260.298C117.072 260.092 117.179 259.892 117.285 259.692C118.244 257.87 119.173 256.125 120.056 254.491C120.815 253.092 121.536 251.772 122.221 250.553C123.876 247.598 125.281 245.242 126.322 243.753C130.673 237.378 137.151 232.633 144.681 230.304L144.869 230.255L145.001 230.31L157.823 226.507L159.698 225.95L160.957 225.575L165.396 222.311L167.812 220.537L170.077 218.871L174.504 215.62L201.911 217.249L207.246 229.656L219.197 233.876L219.404 233.786L219.585 233.713L219.774 233.762C227.302 236.093 233.779 240.838 238.133 247.211C238.722 248.064 239.437 249.19 240.247 250.553C240.936 251.71 241.689 253.03 242.504 254.491C243.662 256.568 244.931 258.911 246.273 261.448C246.567 262.005 246.868 262.575 247.169 263.15C247.727 264.215 248.294 265.303 248.868 266.413C250.204 268.987 251.583 271.676 252.963 274.407C254.16 276.774 255.37 281.643 256.562 287.837C257.546 292.984 258.525 299.052 259.471 305.368C260.712 313.555 259.39 323.358 260.512 330.891C260.577 331.368 260.652 331.834 260.721 332.3Z" fill="#3F3D56"/>
<path d="M181.595 205.716C199.199 205.716 213.471 191.934 213.471 174.932C213.471 157.931 199.199 144.149 181.595 144.149C163.991 144.149 149.719 157.931 149.719 174.932C149.719 191.934 163.991 205.716 181.595 205.716Z" fill="#FFB9B9"/>
<path d="M234.161 134.138C233.531 132.717 232.693 131.391 231.672 130.201C226.831 124.49 218.028 121.978 208.993 128.735C207.254 128.36 205.441 128.461 203.758 129.027C202.963 129.305 202.218 129.701 201.551 130.202C200.182 131.233 199.115 132.59 198.453 134.139C198.099 134.957 197.867 135.82 197.763 136.701C195.53 135.58 193.166 134.72 190.722 134.139C184.725 132.699 178.454 132.699 172.457 134.139C170.535 134.609 168.685 135.317 166.952 136.247C164.017 137.881 162.331 139.946 162.029 142.241C157.797 142.471 153.395 144.623 150.116 148.145C149.746 148.539 149.389 148.951 149.056 149.375C146.299 152.859 144.816 157.129 144.842 161.515V162.284H145.639C147.82 162.282 149.982 162.689 152.003 163.483C153.313 163.99 154.553 164.651 155.696 165.45C156.445 165.963 157.151 166.53 157.81 167.146C159.338 168.574 160.632 170.217 161.648 172.021C164.253 176.577 165.156 181.86 164.206 186.984C163.988 188.17 163.669 189.336 163.253 190.472C162.661 192.091 161.88 193.64 160.927 195.09C160.889 195.144 160.858 195.198 160.82 195.253C160.4 195.901 159.998 196.561 159.622 197.227C159.34 197.723 159.077 198.232 158.832 198.741C158.118 200.156 157.514 201.622 157.027 203.125C156.154 205.783 155.64 208.539 155.496 211.324C155.453 212.063 155.44 212.801 155.465 213.54C155.502 215.444 155.719 217.341 156.111 219.208C156.167 219.462 156.224 219.711 156.28 219.965L156.738 221.897L157.822 226.505L158.575 229.678L159.271 232.621L160.299 231.198C160.652 230.712 161.535 229.224 162.72 227.115C163.503 225.74 164.412 224.101 165.397 222.307C166.77 219.793 168.275 216.99 169.748 214.192C170.344 213.06 170.933 211.934 171.504 210.832C172.583 208.742 173.599 206.726 174.47 204.934C175.272 203.281 175.956 201.815 176.464 200.64C176.62 201.41 176.752 202.191 176.852 202.978C176.965 203.777 177.047 204.588 177.09 205.4C177.103 205.521 177.109 205.648 177.116 205.769L177.141 206.266L177.147 206.412L177.811 206.497C181.645 206.893 185.509 206.921 189.348 206.581H189.354C194.44 206.211 199.43 205.044 204.127 203.124C206.795 202.006 209.286 200.53 211.526 198.739C212.572 197.902 213.548 196.987 214.446 196.002C214.671 195.754 214.891 195.506 215.104 195.251C216.345 193.779 217.407 192.174 218.271 190.468C218.849 189.342 219.339 188.176 219.738 186.98C222.146 179.937 222.008 171.151 219.324 160.712C220.049 160.577 220.743 160.318 221.374 159.949C223.343 158.804 224.71 156.533 225.137 153.76L225.814 153.935C228.214 152.855 230.353 151.3 232.09 149.37C232.434 148.977 232.756 148.566 233.055 148.14C236.124 143.784 236.149 138.553 234.161 134.138Z" fill="#090814"/>
<path opacity="0.2" d="M129.368 287.809L134.693 267.951L139.397 285.085L129.368 287.809Z" fill="black"/>
<path d="M271.142 274.871C269.236 300.231 271.211 311.397 260.69 332.306C251.117 336.832 241.146 340.524 230.894 343.341C229.828 343.632 228.76 343.915 227.691 344.189C214.205 347.635 200.352 349.563 186.408 349.935C185.68 349.953 184.965 349.965 184.276 349.978C184.031 349.984 183.793 349.99 183.555 349.99C182.771 349.996 181.994 350.002 181.209 350.002C166.515 350.013 151.873 348.299 137.607 344.898C136.177 344.558 134.754 344.201 133.337 343.826C125.872 341.858 118.548 339.425 111.41 336.542C107.648 335.028 103.952 333.395 100.324 331.642C99.5023 331.243 98.6808 330.843 97.8719 330.432C93.7147 323.371 91.3509 314.785 91.3006 304.466C94.1793 286.685 264.785 259.539 271.142 274.871Z" fill="#090814"/>
<path opacity="0.2" d="M271.138 279.214C271.235 277.644 271.344 276.022 271.471 274.333C265.113 259.001 94.5075 286.146 91.6293 303.926C91.6373 305.556 91.7093 307.137 91.8306 308.682C98.8006 291.135 260.878 265.334 271.138 279.214Z" fill="black"/>
<path d="M102.265 207.185C102.306 206.636 102.226 206.085 102.028 205.568C101.831 205.052 101.521 204.582 101.12 204.191C100.718 203.8 100.235 203.497 99.7022 203.301C99.1694 203.106 98.5993 203.023 98.0305 203.058C97.8185 203.066 97.6077 203.091 97.4003 203.134L72.4689 208.573C71.9118 208.704 71.3891 208.946 70.9346 209.283C70.48 209.62 70.1037 210.046 69.8298 210.532C69.4642 210.546 69.101 210.597 68.7466 210.685C67.9617 210.846 67.2177 211.156 66.558 211.597C65.8982 212.038 65.3357 212.601 64.9032 213.254C64.4707 213.907 64.1768 214.636 64.0386 215.399C63.9004 216.163 63.9206 216.945 64.098 217.701C64.2755 218.456 64.6066 219.171 65.0722 219.802C65.5379 220.433 66.1287 220.968 66.8104 221.377C67.4922 221.786 68.2512 222.06 69.0434 222.183C69.8357 222.306 70.6454 222.276 71.4255 222.095C72.3173 221.895 73.1516 221.505 73.8673 220.954L82.3156 243.928C82.7376 244.648 83.3896 245.217 84.174 245.55C84.9585 245.882 85.8333 245.96 86.6677 245.773L102.876 242.236C103.704 242.048 104.449 241.612 105.004 240.991C105.56 240.369 105.897 239.593 105.967 238.775L102.265 207.185ZM71.051 220.46C70.4963 220.582 69.922 220.598 69.361 220.506C68.8 220.414 68.2633 220.216 67.7814 219.924C66.8083 219.334 66.1178 218.394 65.8619 217.312C65.7351 216.776 65.7189 216.222 65.8141 215.68C65.9094 215.138 66.1141 214.62 66.4168 214.155C66.7194 213.689 67.114 213.286 67.578 212.968C68.042 212.65 68.5664 212.423 69.1211 212.301C69.1996 212.282 69.2787 212.301 69.3577 212.282C69.3517 212.975 69.535 213.657 69.8892 214.26L72.9809 219.47C72.4429 219.963 71.7757 220.305 71.051 220.46Z" fill="#090814"/>
<path d="M98.031 203.058C98.2676 206.101 92.8716 209.601 85.6439 210.989C79.0071 212.301 73.0599 211.388 71.3857 208.992C71.7222 208.799 72.0876 208.658 72.469 208.573L97.4003 203.134C97.6077 203.091 97.8191 203.066 98.031 203.058Z" fill="#3F3D56"/>
<path d="M80.788 280.306L94.7914 273.544L83.1215 243.114L80.046 227.768C79.6464 225.774 78.712 223.917 77.3362 222.381C75.9605 220.846 74.1914 219.686 72.206 219.017C70.2206 218.348 68.0882 218.195 66.022 218.571C63.9558 218.948 62.0282 219.842 60.4316 221.163C58.0662 223.122 56.5813 225.891 56.2901 228.887C55.999 231.883 56.9245 234.871 58.8712 237.221L70.2874 251.002L80.788 280.306Z" fill="#FFB9B9"/>
<path d="M94.7919 267.909L76.1208 276.925L90.2904 319.8C91.3079 322.879 93.132 325.652 95.5857 327.85C98.0395 330.047 101.04 331.596 104.295 332.344C108.31 333.268 112.524 332.933 116.328 331.387C120.131 329.842 123.326 327.167 125.45 323.75L163.023 261.552C165.685 257.267 166.507 252.145 165.313 247.282C164.118 242.419 161.002 238.2 156.63 235.525C154.278 234.087 151.64 233.143 148.885 232.755C146.131 232.367 143.323 232.543 140.644 233.272C137.965 234.001 135.475 235.267 133.336 236.987C131.197 238.707 129.456 240.842 128.229 243.255L105.294 290.448L94.7919 267.909Z" fill="#3F3D56"/>
<path d="M89.0169 229.16C88.9826 229.16 88.9486 229.154 88.9162 229.143L84.839 227.788C84.7897 227.772 84.7454 227.744 84.7101 227.707C84.6748 227.67 84.6497 227.625 84.6369 227.576C84.6241 227.527 84.6241 227.476 84.6368 227.428C84.6496 227.379 84.6748 227.334 84.7101 227.297L87.7418 224.109C87.7691 224.078 87.8026 224.052 87.8404 224.034C87.8782 224.016 87.9194 224.005 87.9616 224.002C88.0038 224 88.0461 224.005 88.0859 224.019C88.1258 224.033 88.1624 224.054 88.1935 224.081C88.2246 224.109 88.2497 224.142 88.2671 224.18C88.2845 224.217 88.294 224.257 88.2949 224.298C88.2959 224.339 88.2882 224.379 88.2725 224.417C88.2568 224.455 88.2333 224.489 88.2034 224.518L85.4954 227.365L89.1195 228.571C89.1895 228.594 89.2488 228.64 89.2867 228.702C89.3246 228.763 89.3388 228.836 89.3268 228.906C89.3147 228.977 89.2772 229.041 89.2208 229.087C89.1645 229.134 89.0929 229.159 89.0189 229.16H89.0169Z" fill="#6C63FF"/>
<path d="M94.6042 228.055C94.5418 228.055 94.4808 228.037 94.4292 228.003C94.3775 227.97 94.3374 227.922 94.314 227.866C94.2906 227.81 94.2849 227.749 94.2978 227.69C94.3107 227.631 94.3414 227.577 94.3862 227.535L97.1416 224.962L93.4399 223.489C93.3631 223.459 93.302 223.4 93.27 223.326C93.2381 223.252 93.2379 223.168 93.2695 223.094C93.3012 223.02 93.362 222.961 93.4387 222.93C93.5154 222.899 93.6017 222.899 93.6785 222.93L97.8226 224.579C97.8709 224.598 97.9136 224.628 97.9468 224.667C97.9799 224.706 98.0025 224.752 98.0125 224.801C98.0225 224.851 98.0196 224.902 98.004 224.95C97.9884 224.998 97.9607 225.041 97.9233 225.076L94.8236 227.97C94.7652 228.025 94.687 228.055 94.6057 228.055H94.6042Z" fill="#6C63FF"/>
<path d="M89.8721 231.012C89.8408 231.012 89.8097 231.008 89.7799 230.999C89.7406 230.987 89.704 230.968 89.6723 230.943C89.6406 230.917 89.6143 230.886 89.5951 230.851C89.5758 230.816 89.5639 230.778 89.56 230.738C89.5562 230.698 89.5604 230.658 89.5726 230.621L92.4659 221.537C92.478 221.499 92.4978 221.464 92.524 221.434C92.5503 221.403 92.5826 221.378 92.619 221.359C92.6554 221.34 92.6952 221.329 92.7362 221.325C92.7772 221.321 92.8186 221.326 92.858 221.337C92.8973 221.349 92.9339 221.368 92.9657 221.393C92.9974 221.419 93.0236 221.45 93.0429 221.485C93.0621 221.52 93.074 221.559 93.0779 221.598C93.0818 221.638 93.0775 221.678 93.0654 221.716L90.1721 230.799C90.1523 230.861 90.1124 230.915 90.0584 230.953C90.0045 230.992 89.9391 231.012 89.8721 231.012Z" fill="#6C63FF"/>
</g>
<defs>
<clipPath id="clip0_144_126">
<rect width="362.418" height="350" fill="white"/>
</clipPath>
</defs>
</svg>
